<svg width="32" height="32" viewBox="0 0 32 32" fill="none" xmlns="http://www.w3.org/2000/svg">
<rect x="1.02832" y="1.02835" width="30.9716" height="30.9716" rx="4" fill="#09141A"/>
<rect width="30.9716" height="30.9716" rx="4" fill="#AFBBC7"/>
<path d="M0 4C0 1.79086 1.79086 0 4 0H27C29.2091 0 31 1.79086 31 4V10H0V4Z" fill="#162730"/>
<rect x="2" y="15" width="6" height="2" rx="1" fill="#162730"/>
<rect x="2" y="18" width="6" height="2" rx="1" fill="#162730"/>
<rect x="2" y="21" width="6" height="2" rx="1" fill="#162730"/>
<rect x="2" y="24" width="6" height="2" rx="1" fill="#162730"/>
<rect x="9" y="15" width="6" height="2" rx="1" fill="#162730"/>
<rect x="9" y="18" width="6" height="2" rx="1" fill="#162730"/>
<rect x="9" y="21" width="6" height="2" rx="1" fill="#162730"/>
<rect x="9" y="24" width="6" height="2" rx="1" fill="#162730"/>
<rect x="16" y="15" width="6" height="2" rx="1" fill="#162730"/>
<rect x="16" y="18" width="6" height="2" rx="1" fill="#162730"/>
<rect x="16" y="21" width="6" height="2" rx="1" fill="#162730"/>
<rect x="16" y="24" width="6" height="2" rx="1" fill="#162730"/>
<rect x="23" y="15" width="6" height="2" rx="1" fill="#162730"/>
<rect x="23" y="18" width="6" height="2" rx="1" fill="#162730"/>
<rect x="23" y="21" width="6" height="2" rx="1" fill="#162730"/>
<rect x="23" y="24" width="6" height="2" rx="1" fill="#162730"/>
</svg>
