<svg width="21" height="29" viewBox="0 0 21 29" fill="none" xmlns="http://www.w3.org/2000/svg">
<rect width="21" height="29" rx="3" fill="#162730"/>
<path d="M9.9814 21.596V20H7.1394C6.67273 20 6.27607 19.8367 5.9494 19.51C5.62273 19.1833 5.4594 18.7867 5.4594 18.32V17.928H6.5934V18.32C6.5934 18.4693 6.64473 18.6 6.7474 18.712C6.8594 18.8147 6.99007 18.866 7.1394 18.866H9.9814V15.534H7.1394C6.67273 15.534 6.27607 15.3707 5.9494 15.044C5.62273 14.708 5.4594 14.3113 5.4594 13.854V11.6C5.4594 11.1333 5.62273 10.7367 5.9494 10.41C6.27607 10.0833 6.67273 9.92 7.1394 9.92H9.9814V8.31H11.1294V9.92H13.9434C14.4101 9.92 14.8114 10.0833 15.1474 10.41C15.4927 10.7367 15.6561 11.1333 15.6374 11.6L15.6234 11.992H14.4894V11.614C14.4894 11.4647 14.4334 11.334 14.3214 11.222C14.2187 11.11 14.0927 11.054 13.9434 11.054H11.1294V14.372H13.9434C14.4101 14.372 14.8114 14.54 15.1474 14.876C15.4834 15.2027 15.6514 15.5993 15.6514 16.066V18.32C15.6514 18.7867 15.4881 19.1833 15.1614 19.51C14.8347 19.8367 14.4381 20 13.9714 20H11.1294V21.596H9.9814ZM7.1394 14.386H9.9814V11.054H7.1394C6.99007 11.054 6.8594 11.11 6.7474 11.222C6.64473 11.3247 6.5934 11.4507 6.5934 11.6V13.854C6.5934 14.0033 6.64473 14.1293 6.7474 14.232C6.8594 14.3347 6.99007 14.386 7.1394 14.386ZM11.1294 18.866L13.9574 18.852C14.0974 18.852 14.2187 18.8007 14.3214 18.698C14.4334 18.586 14.4894 18.4553 14.4894 18.306V16.066C14.4894 15.9167 14.4334 15.7907 14.3214 15.688C14.2094 15.576 14.0834 15.52 13.9434 15.52H11.1294V18.866Z" fill="#F2F2F2"/>
</svg>
