<svg width="21" height="29" viewBox="0 0 21 29" fill="none" xmlns="http://www.w3.org/2000/svg">
<rect width="21" height="29" rx="3" fill="#162730"/>
<path d="M11.5304 7.46967C11.2375 7.17678 10.7626 7.17678 10.4697 7.46967L5.69672 12.2427C5.40383 12.5356 5.40383 13.0104 5.69672 13.3033C5.98961 13.5962 6.46449 13.5962 6.75738 13.3033L11 9.06066L15.2427 13.3033C15.5356 13.5962 16.0104 13.5962 16.3033 13.3033C16.5962 13.0104 16.5962 12.5356 16.3033 12.2427L11.5304 7.46967ZM11.75 8.5V8H10.25V8.5H11.75Z" fill="#F2F2F2"/>
<path d="M10.4696 21.5303C10.7625 21.8232 11.2374 21.8232 11.5303 21.5303L16.3033 16.7573C16.5962 16.4644 16.5962 15.9896 16.3033 15.6967C16.0104 15.4038 15.5355 15.4038 15.2426 15.6967L11 19.9393L6.75733 15.6967C6.46443 15.4038 5.98958 15.4038 5.69668 15.6967C5.40378 15.9896 5.40378 16.4644 5.69668 16.7573L10.4696 21.5303ZM10.25 20.5V21L11.75 21V20.5L10.25 20.5Z" fill="#F2F2F2"/>
</svg>
