<svg width="21" height="29" viewBox="0 0 21 29" fill="none" xmlns="http://www.w3.org/2000/svg">
<rect width="21" height="29" rx="3" fill="#162730"/>
<path d="M7.62025 14V9.28C7.62025 8.992 7.72158 8.74667 7.92425 8.544C8.12692 8.34133 8.37225 8.24 8.66025 8.24H12.3323C12.6203 8.24 12.8656 8.34133 13.0683 8.544C13.2763 8.74667 13.3803 8.992 13.3803 9.28V14H12.5083V11.984H8.48425V14H7.62025ZM8.48425 11.12H12.5083V9.4C12.5083 9.28267 12.4869 9.20533 12.4443 9.168C12.4069 9.12533 12.3296 9.104 12.2123 9.104H8.78025C8.66292 9.104 8.58292 9.12533 8.54025 9.168C8.50292 9.20533 8.48425 9.28267 8.48425 9.4V11.12Z" fill="#F2F2F2"/>
<path d="M7.62284 21V19.968L12.2228 16.104H7.62284V15.24H13.3828V16.272L8.78284 20.136H13.3828V21H7.62284Z" fill="#F2F2F2"/>
</svg>
