<svg width="32" height="32" viewBox="0 0 32 32" fill="none" xmlns="http://www.w3.org/2000/svg">
<rect x="1.02832" y="1.02835" width="30.9716" height="30.9716" rx="4" fill="#09141A"/>
<rect width="30.9716" height="30.9716" rx="4" fill="#F2F2F2"/>
<path d="M14.0761 25.052V23H10.4221C9.82214 23 9.31214 22.79 8.89214 22.37C8.47214 21.95 8.26214 21.44 8.26214 20.84V20.336H9.72014V20.84C9.72014 21.032 9.78614 21.2 9.91814 21.344C10.0621 21.476 10.2301 21.542 10.4221 21.542H14.0761V17.258H10.4221C9.82214 17.258 9.31214 17.048 8.89214 16.628C8.47214 16.196 8.26214 15.686 8.26214 15.098V12.2C8.26214 11.6 8.47214 11.09 8.89214 10.67C9.31214 10.25 9.82214 10.04 10.4221 10.04H14.0761V7.97H15.5521V10.04H19.1701C19.7701 10.04 20.2861 10.25 20.7181 10.67C21.1621 11.09 21.3721 11.6 21.3481 12.2L21.3301 12.704H19.8721V12.218C19.8721 12.026 19.8001 11.858 19.6561 11.714C19.5241 11.57 19.3621 11.498 19.1701 11.498H15.5521V15.764H19.1701C19.7701 15.764 20.2861 15.98 20.7181 16.412C21.1501 16.832 21.3661 17.342 21.3661 17.942V20.84C21.3661 21.44 21.1561 21.95 20.7361 22.37C20.3161 22.79 19.8061 23 19.2061 23H15.5521V25.052H14.0761ZM10.4221 15.782H14.0761V11.498H10.4221C10.2301 11.498 10.0621 11.57 9.91814 11.714C9.78614 11.846 9.72014 12.008 9.72014 12.2V15.098C9.72014 15.29 9.78614 15.452 9.91814 15.584C10.0621 15.716 10.2301 15.782 10.4221 15.782ZM15.5521 21.542L19.1881 21.524C19.3681 21.524 19.5241 21.458 19.6561 21.326C19.8001 21.182 19.8721 21.014 19.8721 20.822V17.942C19.8721 17.75 19.8001 17.588 19.6561 17.456C19.5121 17.312 19.3501 17.24 19.1701 17.24H15.5521V21.542Z" fill="#162730"/>
</svg>
