<svg width="32" height="32" viewBox="0 0 32 32" fill="none" xmlns="http://www.w3.org/2000/svg">
<rect x="1.02832" y="1.02835" width="30.9716" height="30.9716" rx="4" fill="#09141A"/>
<rect width="30.9716" height="30.9716" rx="4" fill="#AFBBC7"/>
<path d="M5.67383 26C5.16383 26 4.72883 25.825 4.36883 25.475C4.01883 25.115 3.84383 24.685 3.84383 24.185V23.945H5.08883V24.185C5.08883 24.345 5.14383 24.485 5.25383 24.605C5.37383 24.715 5.51383 24.77 5.67383 24.77H12.9488C13.1088 24.77 13.2438 24.715 13.3538 24.605C13.4738 24.485 13.5338 24.345 13.5338 24.185V21.68C13.5338 21.52 13.4738 21.385 13.3538 21.275C13.2438 21.155 13.1088 21.095 12.9488 21.095H5.91383V19.865H12.4688C12.6288 19.865 12.7638 19.81 12.8738 19.7C12.9938 19.58 13.0538 19.44 13.0538 19.28V17.015C13.0538 16.855 12.9938 16.72 12.8738 16.61C12.7638 16.49 12.6288 16.43 12.4688 16.43H5.67383C5.51383 16.43 5.37383 16.49 5.25383 16.61C5.14383 16.72 5.08883 16.855 5.08883 17.015V17.405H3.84383V17.015C3.84383 16.505 4.01883 16.075 4.36883 15.725C4.72883 15.365 5.16383 15.185 5.67383 15.185H12.4688C12.9788 15.185 13.4088 15.365 13.7588 15.725C14.1088 16.075 14.2838 16.505 14.2838 17.015V19.28C14.2838 19.42 14.2638 19.56 14.2238 19.7C14.1938 19.83 14.1538 19.95 14.1038 20.06C14.3538 20.3 14.5238 20.565 14.6138 20.855C14.7138 21.145 14.7638 21.42 14.7638 21.68V24.185C14.7638 24.685 14.5838 25.115 14.2238 25.475C13.8738 25.825 13.4488 26 12.9488 26H5.67383ZM18.1114 26C17.6014 26 17.1714 25.825 16.8214 25.475C16.4714 25.115 16.2964 24.685 16.2964 24.185V17.03C16.2964 16.52 16.4714 16.09 16.8214 15.74C17.1714 15.38 17.6014 15.2 18.1114 15.2H25.3864C25.8864 15.2 26.3114 15.38 26.6614 15.74C27.0214 16.09 27.2014 16.52 27.2014 17.03V24.185C27.2014 24.685 27.0214 25.115 26.6614 25.475C26.3114 25.825 25.8864 26 25.3864 26H18.1114ZM17.6764 24.77H25.3864C25.5464 24.77 25.6814 24.715 25.7914 24.605C25.9114 24.485 25.9714 24.345 25.9714 24.185V17.93L17.6764 24.77ZM17.5264 23.285L25.8064 16.445H18.1114C17.9514 16.445 17.8114 16.505 17.6914 16.625C17.5814 16.735 17.5264 16.87 17.5264 17.03V23.285Z" fill="#162730"/>
<path d="M0 4C0 1.79086 1.79086 0 4 0H27C29.2091 0 31 1.79086 31 4V10H0V4Z" fill="#162730"/>
</svg>
