<svg width="19" height="24" viewBox="0 0 19 24" fill="none" xmlns="http://www.w3.org/2000/svg">
<path d="M8.61097 23.736V21H3.73897C2.93897 21 2.25897 20.72 1.69897 20.16C1.13897 19.6 0.858969 18.92 0.858969 18.12V17.448H2.80297V18.12C2.80297 18.376 2.89097 18.6 3.06697 18.792C3.25897 18.968 3.48297 19.056 3.73897 19.056H8.61097V13.344H3.73897C2.93897 13.344 2.25897 13.064 1.69897 12.504C1.13897 11.928 0.858969 11.248 0.858969 10.464V6.6C0.858969 5.8 1.13897 5.12 1.69897 4.56C2.25897 4 2.93897 3.72 3.73897 3.72H8.61097V0.959999H10.579V3.72H15.403C16.203 3.72 16.891 4 17.467 4.56C18.059 5.12 18.339 5.8 18.307 6.6L18.283 7.272H16.339V6.624C16.339 6.368 16.243 6.144 16.051 5.952C15.875 5.76 15.659 5.664 15.403 5.664H10.579V11.352H15.403C16.203 11.352 16.891 11.64 17.467 12.216C18.043 12.776 18.331 13.456 18.331 14.256V18.12C18.331 18.92 18.051 19.6 17.491 20.16C16.931 20.72 16.251 21 15.451 21H10.579V23.736H8.61097ZM3.73897 11.376H8.61097V5.664H3.73897C3.48297 5.664 3.25897 5.76 3.06697 5.952C2.89097 6.128 2.80297 6.344 2.80297 6.6V10.464C2.80297 10.72 2.89097 10.936 3.06697 11.112C3.25897 11.288 3.48297 11.376 3.73897 11.376ZM10.579 19.056L15.427 19.032C15.667 19.032 15.875 18.944 16.051 18.768C16.243 18.576 16.339 18.352 16.339 18.096V14.256C16.339 14 16.243 13.784 16.051 13.608C15.859 13.416 15.643 13.32 15.403 13.32H10.579V19.056Z" fill="#FF3100"/>
</svg>
