<svg width="32" height="32" viewBox="0 0 32 32" fill="none" xmlns="http://www.w3.org/2000/svg">
<rect x="1.02832" y="1.02835" width="30.9716" height="30.9716" rx="4" fill="#09141A"/>
<rect width="30.9716" height="30.9716" rx="4" fill="#AFBBC7"/>
<path d="M3.80391 24C3.42991 24 3.11091 23.8717 2.84691 23.615C2.59024 23.351 2.46191 23.0357 2.46191 22.669V22.493H3.37491V22.669C3.37491 22.7863 3.41524 22.889 3.49591 22.977C3.58391 23.0577 3.68657 23.098 3.80391 23.098H9.13891C9.25624 23.098 9.35524 23.0577 9.43591 22.977C9.52391 22.889 9.56791 22.7863 9.56791 22.669V20.832C9.56791 20.7147 9.52391 20.6157 9.43591 20.535C9.35524 20.447 9.25624 20.403 9.13891 20.403H3.97991V19.501H8.78691C8.90424 19.501 9.00324 19.4607 9.08391 19.38C9.17191 19.292 9.21591 19.1893 9.21591 19.072V17.411C9.21591 17.2937 9.17191 17.1947 9.08391 17.114C9.00324 17.026 8.90424 16.982 8.78691 16.982H3.80391C3.68657 16.982 3.58391 17.026 3.49591 17.114C3.41524 17.1947 3.37491 17.2937 3.37491 17.411V17.697H2.46191V17.411C2.46191 17.037 2.59024 16.7217 2.84691 16.465C3.11091 16.201 3.42991 16.069 3.80391 16.069H8.78691C9.16091 16.069 9.47624 16.201 9.73291 16.465C9.98957 16.7217 10.1179 17.037 10.1179 17.411V19.072C10.1179 19.1747 10.1032 19.2773 10.0739 19.38C10.0519 19.4753 10.0226 19.5633 9.98591 19.644C10.1692 19.82 10.2939 20.0143 10.3599 20.227C10.4332 20.4397 10.4699 20.6413 10.4699 20.832V22.669C10.4699 23.0357 10.3379 23.351 10.0739 23.615C9.81724 23.8717 9.50557 24 9.13891 24H3.80391ZM12.9248 24C12.5508 24 12.2355 23.8717 11.9788 23.615C11.7221 23.351 11.5938 23.0357 11.5938 22.669V17.411C11.5938 17.037 11.7221 16.7217 11.9788 16.465C12.2355 16.201 12.5508 16.069 12.9248 16.069H18.2048V16.982H12.9248C12.8075 16.982 12.7048 17.026 12.6168 17.114C12.5361 17.1947 12.4958 17.2937 12.4958 17.411V18.995C12.4958 19.1123 12.5361 19.215 12.6168 19.303C12.7048 19.391 12.8075 19.435 12.9248 19.435H18.2598C18.6265 19.435 18.9381 19.5633 19.1948 19.82C19.4588 20.0767 19.5908 20.392 19.5908 20.766V22.669C19.5908 23.0357 19.4588 23.351 19.1948 23.615C18.9381 23.8717 18.6265 24 18.2598 24H12.9248ZM12.9248 23.098H18.2598C18.3771 23.098 18.4761 23.0577 18.5568 22.977C18.6448 22.889 18.6888 22.7863 18.6888 22.669V20.766C18.6888 20.6487 18.6448 20.5497 18.5568 20.469C18.4761 20.381 18.3771 20.337 18.2598 20.337H12.4958V22.669C12.4958 22.7863 12.5361 22.889 12.6168 22.977C12.7048 23.0577 12.8075 23.098 12.9248 23.098ZM21.9482 24C21.5742 24 21.2589 23.8717 21.0022 23.615C20.7456 23.351 20.6172 23.0357 20.6172 22.669V22.35H21.5192V22.669C21.5192 22.7863 21.5596 22.889 21.6402 22.977C21.7282 23.0577 21.8309 23.098 21.9482 23.098H27.2832C27.4006 23.098 27.4996 23.0577 27.5802 22.977C27.6682 22.889 27.7122 22.7863 27.7122 22.669V20.799C27.7122 20.6817 27.6682 20.5827 27.5802 20.502C27.4996 20.414 27.4006 20.37 27.2832 20.37H20.6172V16.069H28.6142V16.982H21.9482C21.8309 16.982 21.7282 17.026 21.6402 17.114C21.5596 17.1947 21.5192 17.2937 21.5192 17.411V19.028C21.5192 19.1453 21.5596 19.248 21.6402 19.336C21.7282 19.424 21.8309 19.468 21.9482 19.468H27.2832C27.6499 19.468 27.9616 19.5963 28.2182 19.853C28.4822 20.1097 28.6142 20.425 28.6142 20.799V22.669C28.6142 23.0357 28.4822 23.351 28.2182 23.615C27.9616 23.8717 27.6499 24 27.2832 24H21.9482Z" fill="#162730"/>
<path d="M0 4C0 1.79086 1.79086 0 4 0H27C29.2091 0 31 1.79086 31 4V10H0V4Z" fill="#162730"/>
</svg>
